<mxfile host="Electron" agent="Mozilla/5.0 (X11; Linux x86_64) AppleWebKit/537.36 (KHTML, like Gecko) draw.io/26.0.4 Chrome/128.0.6613.186 Electron/32.2.5 Safari/537.36" version="26.0.4">
  <diagram name="Page-1" id="d1j3dSY6QAwNgCqJpolB">
    <mxGraphModel dx="1114" dy="1198" grid="1" gridSize="10" guides="1" tooltips="1" connect="1" arrows="1" fold="1" page="1" pageScale="1" pageWidth="850" pageHeight="1100" math="0" shadow="0">
      <root>
        <mxCell id="0" />
        <mxCell id="1" parent="0" />
        <mxCell id="E2rSAB7_8tD2GdRpus9F-13" style="edgeStyle=orthogonalEdgeStyle;rounded=0;orthogonalLoop=1;jettySize=auto;html=1;" edge="1" parent="1" source="E2rSAB7_8tD2GdRpus9F-1" target="E2rSAB7_8tD2GdRpus9F-2">
          <mxGeometry relative="1" as="geometry" />
        </mxCell>
        <mxCell id="E2rSAB7_8tD2GdRpus9F-1" value="" style="sketch=0;pointerEvents=1;shadow=0;dashed=0;html=1;strokeColor=none;fillColor=#000000;labelPosition=center;verticalLabelPosition=bottom;verticalAlign=top;outlineConnect=0;align=center;shape=mxgraph.office.devices.webcam;" vertex="1" parent="1">
          <mxGeometry x="58" y="326" width="51.5" height="70" as="geometry" />
        </mxCell>
        <mxCell id="E2rSAB7_8tD2GdRpus9F-2" value="Amazon Kinesis Video Streams" style="sketch=0;points=[[0,0,0],[0.25,0,0],[0.5,0,0],[0.75,0,0],[1,0,0],[0,1,0],[0.25,1,0],[0.5,1,0],[0.75,1,0],[1,1,0],[0,0.25,0],[0,0.5,0],[0,0.75,0],[1,0.25,0],[1,0.5,0],[1,0.75,0]];outlineConnect=0;fontColor=#232F3E;fillColor=#8C4FFF;strokeColor=#ffffff;dashed=0;verticalLabelPosition=top;verticalAlign=bottom;align=center;html=1;fontSize=12;fontStyle=0;aspect=fixed;shape=mxgraph.aws4.resourceIcon;resIcon=mxgraph.aws4.kinesis_video_streams;labelPosition=center;" vertex="1" parent="1">
          <mxGeometry x="367.25" y="322" width="78" height="78" as="geometry" />
        </mxCell>
        <mxCell id="E2rSAB7_8tD2GdRpus9F-21" style="edgeStyle=orthogonalEdgeStyle;rounded=0;orthogonalLoop=1;jettySize=auto;html=1;" edge="1" parent="1" source="E2rSAB7_8tD2GdRpus9F-3" target="E2rSAB7_8tD2GdRpus9F-20">
          <mxGeometry relative="1" as="geometry" />
        </mxCell>
        <mxCell id="E2rSAB7_8tD2GdRpus9F-3" value="Amazon Rekognition Video" style="sketch=0;points=[[0,0,0],[0.25,0,0],[0.5,0,0],[0.75,0,0],[1,0,0],[0,1,0],[0.25,1,0],[0.5,1,0],[0.75,1,0],[1,1,0],[0,0.25,0],[0,0.5,0],[0,0.75,0],[1,0.25,0],[1,0.5,0],[1,0.75,0]];outlineConnect=0;fontColor=#232F3E;fillColor=#01A88D;strokeColor=#ffffff;dashed=0;verticalLabelPosition=top;verticalAlign=bottom;align=center;html=1;fontSize=12;fontStyle=0;aspect=fixed;shape=mxgraph.aws4.resourceIcon;resIcon=mxgraph.aws4.rekognition_2;labelPosition=center;" vertex="1" parent="1">
          <mxGeometry x="541.75" y="322" width="78" height="78" as="geometry" />
        </mxCell>
        <mxCell id="E2rSAB7_8tD2GdRpus9F-16" style="edgeStyle=orthogonalEdgeStyle;rounded=0;orthogonalLoop=1;jettySize=auto;html=1;" edge="1" parent="1" source="E2rSAB7_8tD2GdRpus9F-4" target="E2rSAB7_8tD2GdRpus9F-3">
          <mxGeometry relative="1" as="geometry" />
        </mxCell>
        <mxCell id="E2rSAB7_8tD2GdRpus9F-4" value="Face collection" style="sketch=0;outlineConnect=0;fontColor=#232F3E;gradientColor=none;fillColor=#ED7100;strokeColor=none;dashed=0;verticalLabelPosition=bottom;verticalAlign=top;align=center;html=1;fontSize=12;fontStyle=0;aspect=fixed;pointerEvents=1;shape=mxgraph.aws4.container_registry_image;" vertex="1" parent="1">
          <mxGeometry x="711.75" y="321" width="80" height="80" as="geometry" />
        </mxCell>
        <mxCell id="E2rSAB7_8tD2GdRpus9F-9" style="edgeStyle=orthogonalEdgeStyle;rounded=0;orthogonalLoop=1;jettySize=auto;html=1;" edge="1" parent="1" source="E2rSAB7_8tD2GdRpus9F-5" target="E2rSAB7_8tD2GdRpus9F-8">
          <mxGeometry relative="1" as="geometry" />
        </mxCell>
        <mxCell id="E2rSAB7_8tD2GdRpus9F-5" value="Amazon SNS" style="sketch=0;points=[[0,0,0],[0.25,0,0],[0.5,0,0],[0.75,0,0],[1,0,0],[0,1,0],[0.25,1,0],[0.5,1,0],[0.75,1,0],[1,1,0],[0,0.25,0],[0,0.5,0],[0,0.75,0],[1,0.25,0],[1,0.5,0],[1,0.75,0]];outlineConnect=0;fontColor=#232F3E;fillColor=#E7157B;strokeColor=#ffffff;dashed=0;verticalLabelPosition=bottom;verticalAlign=top;align=center;html=1;fontSize=12;fontStyle=0;aspect=fixed;shape=mxgraph.aws4.resourceIcon;resIcon=mxgraph.aws4.sns;" vertex="1" parent="1">
          <mxGeometry x="194.25" y="630" width="78" height="78" as="geometry" />
        </mxCell>
        <mxCell id="E2rSAB7_8tD2GdRpus9F-10" style="edgeStyle=orthogonalEdgeStyle;rounded=0;orthogonalLoop=1;jettySize=auto;html=1;" edge="1" parent="1" source="E2rSAB7_8tD2GdRpus9F-6" target="E2rSAB7_8tD2GdRpus9F-5">
          <mxGeometry relative="1" as="geometry" />
        </mxCell>
        <mxCell id="E2rSAB7_8tD2GdRpus9F-6" value="AWS Lambda" style="sketch=0;points=[[0,0,0],[0.25,0,0],[0.5,0,0],[0.75,0,0],[1,0,0],[0,1,0],[0.25,1,0],[0.5,1,0],[0.75,1,0],[1,1,0],[0,0.25,0],[0,0.5,0],[0,0.75,0],[1,0.25,0],[1,0.5,0],[1,0.75,0]];outlineConnect=0;fontColor=#232F3E;fillColor=#ED7100;strokeColor=#ffffff;dashed=0;verticalLabelPosition=bottom;verticalAlign=top;align=center;html=1;fontSize=12;fontStyle=0;aspect=fixed;shape=mxgraph.aws4.resourceIcon;resIcon=mxgraph.aws4.lambda;" vertex="1" parent="1">
          <mxGeometry x="367.25" y="630" width="78" height="78" as="geometry" />
        </mxCell>
        <mxCell id="E2rSAB7_8tD2GdRpus9F-7" value="Amazon Kinesis Streams" style="sketch=0;points=[[0,0,0],[0.25,0,0],[0.5,0,0],[0.75,0,0],[1,0,0],[0,1,0],[0.25,1,0],[0.5,1,0],[0.75,1,0],[1,1,0],[0,0.25,0],[0,0.5,0],[0,0.75,0],[1,0.25,0],[1,0.5,0],[1,0.75,0]];outlineConnect=0;fontColor=#232F3E;fillColor=#8C4FFF;strokeColor=#ffffff;dashed=0;verticalLabelPosition=bottom;verticalAlign=top;align=center;html=1;fontSize=12;fontStyle=0;aspect=fixed;shape=mxgraph.aws4.resourceIcon;resIcon=mxgraph.aws4.kinesis_data_streams;" vertex="1" parent="1">
          <mxGeometry x="541.75" y="630" width="78" height="78" as="geometry" />
        </mxCell>
        <mxCell id="E2rSAB7_8tD2GdRpus9F-8" value="Text Notification" style="sketch=0;outlineConnect=0;fontColor=#232F3E;gradientColor=none;fillColor=#232F3D;strokeColor=none;dashed=0;verticalLabelPosition=bottom;verticalAlign=top;align=center;html=1;fontSize=12;fontStyle=0;aspect=fixed;pointerEvents=1;shape=mxgraph.aws4.mobile_client;" vertex="1" parent="1">
          <mxGeometry x="63.25" y="630" width="41" height="78" as="geometry" />
        </mxCell>
        <mxCell id="E2rSAB7_8tD2GdRpus9F-12" style="edgeStyle=orthogonalEdgeStyle;rounded=0;orthogonalLoop=1;jettySize=auto;html=1;entryX=1;entryY=0.5;entryDx=0;entryDy=0;entryPerimeter=0;" edge="1" parent="1" source="E2rSAB7_8tD2GdRpus9F-7" target="E2rSAB7_8tD2GdRpus9F-6">
          <mxGeometry relative="1" as="geometry" />
        </mxCell>
        <mxCell id="E2rSAB7_8tD2GdRpus9F-15" style="edgeStyle=orthogonalEdgeStyle;rounded=0;orthogonalLoop=1;jettySize=auto;html=1;entryX=0;entryY=0.5;entryDx=0;entryDy=0;entryPerimeter=0;" edge="1" parent="1" source="E2rSAB7_8tD2GdRpus9F-2" target="E2rSAB7_8tD2GdRpus9F-3">
          <mxGeometry relative="1" as="geometry" />
        </mxCell>
        <mxCell id="E2rSAB7_8tD2GdRpus9F-19" value="1. Camera-captured video streams are processed by Kinesis Video Streams" style="text;html=1;align=center;verticalAlign=middle;whiteSpace=wrap;rounded=0;" vertex="1" parent="1">
          <mxGeometry x="272.25" y="410" width="260" height="30" as="geometry" />
        </mxCell>
        <mxCell id="E2rSAB7_8tD2GdRpus9F-22" style="edgeStyle=orthogonalEdgeStyle;rounded=0;orthogonalLoop=1;jettySize=auto;html=1;" edge="1" parent="1" source="E2rSAB7_8tD2GdRpus9F-20" target="E2rSAB7_8tD2GdRpus9F-7">
          <mxGeometry relative="1" as="geometry" />
        </mxCell>
        <mxCell id="E2rSAB7_8tD2GdRpus9F-20" value="2. Rekognition Video analyses the video and searches faces on screen against a collection of millions of faces" style="text;html=1;align=center;verticalAlign=middle;whiteSpace=wrap;rounded=0;" vertex="1" parent="1">
          <mxGeometry x="465.75" y="460" width="230" height="110" as="geometry" />
        </mxCell>
        <mxCell id="E2rSAB7_8tD2GdRpus9F-23" value="3. End user is notified in case of face matches" style="text;html=1;align=center;verticalAlign=middle;whiteSpace=wrap;rounded=0;" vertex="1" parent="1">
          <mxGeometry x="140.75" y="730" width="140" height="50" as="geometry" />
        </mxCell>
      </root>
    </mxGraphModel>
  </diagram>
</mxfile>
